<svg width="300" height="300" viewBox="0 0 300 300" fill="none" xmlns="http://www.w3.org/2000/svg">
<path fill-rule="evenodd" clip-rule="evenodd" d="M77.3613 97.1024C77.0305 97.179 75.914 97.5444 74.8799 97.9144L73 98.587V150.525V202.464L75.0303 203.232L77.0605 204H150H222.939L224.97 203.232L227 202.464V150.53V98.5962L225.12 97.8232L223.24 97.0506L150.602 97.0068C110.65 96.9825 77.6922 97.0257 77.3613 97.1024ZM207.253 103.931C207.71 104.245 208.158 104.706 208.25 104.957C208.555 105.792 208.023 107.092 206.903 108.246C206.294 108.874 198.215 114.909 188.951 121.657C179.687 128.405 168.182 136.804 163.385 140.321C152.773 148.1 152.239 148.422 149.98 148.422C147.757 148.422 147.362 148.181 136.083 139.928C131.082 136.268 119.817 128.049 111.049 121.663C102.281 115.276 94.5302 109.564 93.8243 108.968C90.9308 106.524 90.9997 104.115 93.9804 103.502C94.6003 103.375 120.153 103.291 150.765 103.315C203.909 103.358 206.461 103.386 207.253 103.931ZM83.9957 109.835C85.3675 110.382 118.748 134.812 120.412 136.486C122.509 138.597 122.745 139.794 121.538 142.183C120.657 143.929 87.1674 183.72 84.5341 186.152C82.4999 188.03 80.8874 188.108 79.9811 186.372C79.5062 185.462 79.4599 182.686 79.376 150.052C79.3257 130.618 79.3724 113.948 79.4791 113.008C79.8055 110.132 81.593 108.877 83.9957 109.835ZM219.476 110.405C220.118 111.079 220.374 111.717 220.521 113.008C220.628 113.948 220.674 130.618 220.624 150.052C220.54 182.686 220.494 185.462 220.019 186.372C219.113 188.108 217.5 188.03 215.466 186.152C212.833 183.72 179.343 143.929 178.462 142.183C177.254 139.793 177.491 138.597 179.59 136.486C181.136 134.931 214.578 110.413 215.928 109.845C217.31 109.263 218.578 109.463 219.476 110.405ZM132.943 145.517C133.639 145.886 136.791 148.071 139.947 150.373C147.071 155.569 147.861 156.012 150 156.012C152.139 156.012 152.929 155.569 160.053 150.373C166.893 145.384 167.84 144.847 169.794 144.847C171.531 144.847 172.698 145.626 175.273 148.508C180.048 153.851 212.186 192.05 212.625 192.905C213.761 195.114 213.094 196.922 210.935 197.492C209.017 197.999 90.9828 197.999 89.065 197.492C86.9057 196.922 86.2395 195.114 87.3749 192.905C87.8144 192.05 119.952 153.851 124.727 148.508C127.302 145.626 128.469 144.847 130.206 144.847C131.108 144.847 132.166 145.106 132.943 145.517Z" fill="black"/>
<circle cx="150" cy="150" r="146.5" stroke="black" stroke-width="7"/>
</svg>
