<svg width="100" height="100" viewBox="0 0 100 100" fill="none" xmlns="http://www.w3.org/2000/svg">
<path d="M49.8589 3.97095C24.5059 3.97095 3.88086 24.5959 3.88086 49.9489C3.88086 75.3019 24.5059 95.9269 49.8589 95.9269C75.2109 95.9269 95.8359 75.3019 95.8359 49.9489C95.8359 24.5959 75.2109 3.97095 49.8589 3.97095ZM49.8589 93.9259C25.6089 93.9259 5.88086 74.1979 5.88086 49.9479C5.88086 25.6979 25.6089 5.97095 49.8589 5.97095C74.1079 5.97095 93.8359 25.6989 93.8359 49.9489C93.8359 74.1989 74.1079 93.9259 49.8589 93.9259Z" fill="white"/>
<path d="M64.343 22.2119H55.525C48.331 22.2119 42.253 29.0489 42.253 37.1429V40.3929H35.252C34.9867 40.3929 34.7324 40.4983 34.5448 40.6858C34.3573 40.8733 34.252 41.1277 34.252 41.3929V52.3029C34.252 52.5681 34.3573 52.8225 34.5448 53.01C34.7324 53.1976 34.9867 53.3029 35.252 53.3029H42.253V76.9279C42.253 77.1931 42.3583 77.4475 42.5458 77.635C42.7334 77.8226 42.9877 77.9279 43.253 77.9279H53.435C53.7002 77.9279 53.9545 77.8226 54.1421 77.635C54.3296 77.4475 54.435 77.1931 54.435 76.9279V53.3039H64.344C64.6092 53.3039 64.8635 53.1986 65.0511 53.011C65.2386 52.8235 65.344 52.5691 65.344 52.3039V41.3939C65.344 41.1287 65.2386 40.8743 65.0511 40.6868C64.8635 40.4993 64.6092 40.3939 64.344 40.3939H54.435V37.0489C54.435 35.7769 55.199 35.1209 55.525 35.1209H64.343C64.6082 35.1209 64.8625 35.0156 65.0501 34.828C65.2376 34.6405 65.343 34.3861 65.343 34.1209V23.2119C65.343 22.9467 65.2376 22.6923 65.0501 22.5048C64.8625 22.3173 64.6082 22.2119 64.343 22.2119V22.2119ZM63.343 33.1209H55.525C54.033 33.1209 52.435 34.6989 52.435 37.0489V41.3939C52.435 41.6591 52.5403 41.9135 52.7278 42.101C52.9154 42.2886 53.1697 42.3939 53.435 42.3939H63.344V51.3039H53.435C53.1697 51.3039 52.9154 51.4093 52.7278 51.5968C52.5403 51.7843 52.435 52.0387 52.435 52.3039V75.9289H44.253V52.3039C44.253 52.0387 44.1476 51.7843 43.9601 51.5968C43.7725 51.4093 43.5182 51.3039 43.253 51.3039H36.252V42.3939H43.253C43.5182 42.3939 43.7725 42.2886 43.9601 42.101C44.1476 41.9135 44.253 41.6591 44.253 41.3939V37.1439C44.253 30.1349 49.415 24.2129 55.525 24.2129H63.343V33.1209V33.1209Z" fill="white"/>
</svg>
