<svg width="100" height="100" viewBox="0 0 100 100" fill="none" xmlns="http://www.w3.org/2000/svg">
<path d="M49.7739 4.45898C24.4219 4.45898 3.79688 25.084 3.79688 50.436C3.79688 75.788 24.4219 96.414 49.7739 96.414C75.1269 96.414 95.7529 75.789 95.7529 50.436C95.7529 25.083 75.1269 4.45898 49.7739 4.45898ZM49.7739 94.414C25.5249 94.414 5.79688 74.686 5.79688 50.436C5.79688 26.187 25.5249 6.45898 49.7739 6.45898C74.0239 6.45898 93.7529 26.187 93.7529 50.436C93.7529 74.686 74.0239 94.414 49.7739 94.414V94.414Z" fill="white"/>
<path d="M49.7731 20.9519C33.5151 20.9519 20.2891 34.1799 20.2891 50.4379C20.2891 62.8859 28.1661 74.0529 39.8951 78.2259L40.2131 78.3339C40.6207 78.4651 41.0538 78.4966 41.4761 78.426C41.8984 78.3554 42.2977 78.1846 42.6404 77.9279C42.9831 77.6712 43.2594 77.3362 43.446 76.9508C43.6326 76.5654 43.7242 76.1409 43.7131 75.7129L43.7151 75.6549V70.7029C43.7151 70.5545 43.6822 70.4079 43.6185 70.2739C43.5549 70.1398 43.4623 70.0215 43.3473 69.9277C43.2323 69.8339 43.0979 69.7668 42.9538 69.7314C42.8096 69.696 42.6594 69.6931 42.5141 69.7229C41.6281 69.9049 40.3131 70.1209 39.0821 70.1209C37.9901 70.1209 37.4001 69.9469 37.0971 69.8009C35.4341 69.0009 34.6171 68.0389 33.7341 65.8429C33.0841 64.2189 32.0041 63.1759 31.1011 62.4919C31.5391 62.5599 32.0681 62.7419 32.4601 63.1919C32.7571 63.5319 33.0721 63.9709 33.4051 64.4349C34.6931 66.2279 36.4861 68.7199 39.6141 68.4039C41.0121 68.2579 42.1851 68.0339 43.1011 67.7369C43.2832 67.6779 43.4446 67.5679 43.566 67.4198C43.6874 67.2718 43.7638 67.0921 43.7861 66.9019C43.9371 65.6109 44.3261 64.6299 44.9421 63.9849C45.0679 63.8535 45.1554 63.6902 45.1953 63.5126C45.2352 63.3351 45.2259 63.15 45.1684 62.9774C45.1109 62.8048 45.0073 62.6511 44.869 62.5329C44.7306 62.4148 44.5626 62.3366 44.3831 62.3069C36.4911 61.0029 32.4901 56.8109 32.4901 49.8479C32.4901 46.5759 33.3871 43.8869 35.1561 41.8549C35.254 41.7423 35.3254 41.6093 35.3652 41.4655C35.405 41.3217 35.4121 41.1708 35.3861 41.0239C34.8671 38.0809 34.9391 35.6879 35.5561 34.7879C36.0431 34.6939 37.9581 34.6439 42.0601 37.5329C42.1749 37.6142 42.3057 37.6703 42.4437 37.6973C42.5818 37.7244 42.724 37.7219 42.8611 37.6899C44.8701 37.2279 47.1511 36.9849 49.6401 36.9699C49.6839 36.97 49.7277 36.967 49.7711 36.9609L49.7721 36.9689L49.8371 36.9679L49.9041 36.9699C52.3931 36.9859 54.6751 37.2279 56.6831 37.6899C56.9581 37.7539 57.2491 37.6969 57.4841 37.5329C61.6021 34.6329 63.5501 34.7179 63.9871 34.7849C64.6061 35.6809 64.6781 38.0769 64.1591 41.0249C64.133 41.1718 64.1401 41.3227 64.1799 41.4665C64.2197 41.6103 64.2912 41.7433 64.3891 41.8559C66.1591 43.8849 67.0551 46.5739 67.0551 49.8479C67.0551 56.8109 63.0531 61.0029 55.1611 62.3069C54.9816 62.3366 54.8136 62.4148 54.6752 62.5329C54.5368 62.6511 54.4333 62.8048 54.3758 62.9774C54.3182 63.15 54.3089 63.3351 54.3488 63.5126C54.3887 63.6902 54.4763 63.8535 54.6021 63.9849C55.8311 65.2679 55.8311 67.5589 55.8311 68.3119V75.7869C55.8316 76.192 55.924 76.5916 56.1014 76.9558C56.2787 77.32 56.5363 77.6392 56.8549 77.8894C57.1734 78.1396 57.5446 78.3142 57.9404 78.4002C58.3362 78.4862 58.7464 78.4813 59.1401 78.3859C59.1821 78.3759 59.3431 78.3309 59.4081 78.3099C71.2821 74.2089 79.2601 63.0069 79.2601 50.4379C79.2601 34.1789 66.0321 20.9519 49.7731 20.9519V20.9519ZM58.7861 76.4119L58.6671 76.4449C58.2691 76.5439 57.8331 76.2159 57.8331 75.7889V68.3139C57.8331 67.5769 57.8331 65.6749 57.0051 63.9889C64.9001 62.2209 69.0581 57.3579 69.0581 49.8489C69.0581 46.2679 68.1001 43.2649 66.2081 40.9119C66.6481 38.1669 66.7991 34.7759 65.2971 33.2379C65.2397 33.1801 65.176 33.1291 65.1071 33.0859C64.7171 32.8459 62.5491 31.6419 56.7001 35.6469C54.6581 35.2139 52.3801 34.9869 49.9191 34.9719V34.9799C49.871 34.9736 49.8226 34.9703 49.7741 34.9699L49.6361 34.9679C49.6041 34.9679 49.5721 34.9689 49.5401 34.9719C47.1141 34.9929 44.8661 35.2189 42.8491 35.6459C36.9981 31.6419 34.8331 32.8449 34.4431 33.0849C34.3737 33.1279 34.3099 33.1793 34.2531 33.2379C32.7511 34.7769 32.9011 38.1679 33.3421 40.9109C31.4501 43.2649 30.4921 46.2699 30.4921 49.8489C30.4921 57.3569 34.6501 62.2209 42.5441 63.9879C42.2386 64.6267 42.0223 65.3043 41.9011 66.0019C41.3311 66.1449 40.5201 66.2999 39.4091 66.4159C37.4311 66.6189 36.2181 64.9199 35.0311 63.2689C34.6701 62.7649 34.3271 62.2889 33.9681 61.8769C33.1671 60.9599 31.9741 60.4539 30.6081 60.4539C29.7501 60.4539 28.6551 60.6699 28.1581 61.2769C28.0454 61.4107 27.9639 61.5678 27.9195 61.737C27.875 61.9061 27.8687 62.083 27.9011 62.2549C28.0141 62.8269 28.4771 63.1299 29.0631 63.5119C29.9171 64.0699 31.2081 64.9119 31.8801 66.5889C32.9411 69.2289 34.1201 70.5879 36.2321 71.6039C36.9561 71.9529 37.8881 72.1219 39.0851 72.1219C39.9861 72.1219 40.9121 72.0229 41.7181 71.8979V75.6059C41.7131 75.6668 41.7131 75.728 41.7181 75.7889C41.7181 76.2319 41.2561 76.5659 40.8301 76.4309L40.5611 76.3389C29.6331 72.4509 22.2901 62.0419 22.2901 50.4379C22.2901 35.2819 34.6191 22.9519 49.7741 22.9519C64.9301 22.9519 77.2601 35.2819 77.2601 50.4379C77.2601 62.1549 69.8241 72.5969 58.7861 76.4119Z" fill="white"/>
</svg>
