<svg width="100" height="100" viewBox="0 0 100 100" fill="none" xmlns="http://www.w3.org/2000/svg">
<path d="M49.7407 95.8659C75.0927 95.8659 95.7177 75.2409 95.7177 49.8879C95.7177 24.5349 75.0927 3.91089 49.7407 3.91089C24.3877 3.91089 3.76172 24.5359 3.76172 49.8889C3.76172 75.2419 24.3877 95.8659 49.7407 95.8659ZM49.7407 5.91089C73.9897 5.91089 93.7177 25.6389 93.7177 49.8889C93.7177 74.1389 73.9897 93.8659 49.7407 93.8659C25.4907 93.8659 5.76172 74.1379 5.76172 49.8879C5.76172 25.6379 25.4907 5.91089 49.7407 5.91089V5.91089Z" fill="#2D2D2D"/>
<path d="M37.5789 39.772H28.4639C28.1987 39.772 27.9443 39.8774 27.7568 40.0649C27.5692 40.2525 27.4639 40.5068 27.4639 40.772V70.2181C27.4639 70.4833 27.5692 70.7376 27.7568 70.9252C27.9443 71.1127 28.1987 71.2181 28.4639 71.2181H37.5789C37.8441 71.2181 38.0985 71.1127 38.286 70.9252C38.4735 70.7376 38.5789 70.4833 38.5789 70.2181V40.772C38.5789 40.5068 38.4735 40.2525 38.286 40.0649C38.0985 39.8774 37.8441 39.772 37.5789 39.772ZM36.5789 69.2181H29.4639V41.772H36.5789V69.2181ZM43.4069 71.2181H52.1489C52.4141 71.2181 52.6685 71.1127 52.856 70.9252C53.0435 70.7376 53.1489 70.4833 53.1489 70.2181V54.7611C53.1489 52.2041 53.9389 49.156 57.7019 49.156C58.6819 49.156 61.6649 49.1561 61.6649 54.7611V70.2191C61.6649 70.4843 61.7703 70.7386 61.9578 70.9262C62.1453 71.1137 62.3997 71.2191 62.6649 71.2191H71.7349C72.0001 71.2191 72.2545 71.1137 72.442 70.9262C72.6295 70.7386 72.7349 70.4843 72.7349 70.2191V51.5741C72.7349 43.6211 68.3559 38.8731 61.0219 38.8731C57.2569 38.8731 54.6979 40.475 53.1489 41.934V40.773C53.1489 40.5078 53.0435 40.2535 52.856 40.0659C52.6685 39.8784 52.4141 39.773 52.1489 39.773H43.4069C43.1417 39.773 42.8873 39.8784 42.6998 40.0659C42.5122 40.2535 42.4069 40.5078 42.4069 40.773V70.2191C42.4072 70.4841 42.5126 70.7382 42.7001 70.9255C42.8876 71.1128 43.1418 71.2181 43.4069 71.2181V71.2181ZM44.4069 41.772H51.1489V44.737C51.1489 44.9596 51.2231 45.1759 51.3599 45.3515C51.4967 45.5271 51.6881 45.6521 51.9039 45.7066C52.1197 45.7611 52.3476 45.7421 52.5513 45.6525C52.7551 45.5629 52.9232 45.4079 53.0289 45.2121C53.0519 45.1691 55.4389 40.8721 61.0219 40.8721C67.1949 40.8721 70.7349 44.7721 70.7349 51.5731V69.2171H63.6649V54.7611C63.6649 48.1441 59.9289 47.156 57.7019 47.156C53.5979 47.156 51.1489 49.9991 51.1489 54.7611V69.2191H44.4069V41.772V41.772ZM32.9779 37.916C36.5009 37.916 39.3679 35.03 39.3679 31.483C39.3679 27.936 36.5019 25.05 32.9779 25.05C29.4539 25.05 26.5879 27.936 26.5879 31.483C26.5879 35.03 29.4539 37.916 32.9779 37.916ZM32.9779 27.05C35.3979 27.05 37.3679 29.038 37.3679 31.483C37.3679 33.928 35.3989 35.916 32.9779 35.916C30.5569 35.916 28.5879 33.927 28.5879 31.483C28.5879 29.039 30.5569 27.05 32.9779 27.05Z" fill="#2D2D2D"/>
</svg>
