<svg width="300" height="300" viewBox="0 0 300 300" fill="none" xmlns="http://www.w3.org/2000/svg">
<circle cx="150" cy="150" r="143.5" stroke="black" stroke-width="13"/>
<path d="M155.927 85C155.927 81.6863 153.241 79 149.927 79C146.613 79 143.927 81.6863 143.927 85H155.927ZM145.685 196.663C148.028 199.006 151.827 199.006 154.17 196.663L192.354 158.479C194.697 156.136 194.697 152.337 192.354 149.994C190.01 147.65 186.211 147.65 183.868 149.994L149.927 183.935L115.986 149.994C113.643 147.65 109.844 147.65 107.501 149.994C105.158 152.337 105.158 156.136 107.501 158.479L145.685 196.663ZM85 216H79C79 219.314 81.6863 222 85 222V216ZM214 216V222C217.314 222 220 219.314 220 216H214ZM220 156.613C220 153.3 217.314 150.613 214 150.613C210.686 150.613 208 153.3 208 156.613H220ZM91 156.613C91 153.3 88.3137 150.613 85 150.613C81.6863 150.613 79 153.3 79 156.613H91ZM143.927 85V192.42H155.927V85H143.927ZM85 222H214V210H85V222ZM220 216V156.613H208V216H220ZM91 216V156.613H79V216H91Z" fill="black"/>
</svg>
