<svg width="322" height="344" viewBox="0 0 322 344" fill="none" xmlns="http://www.w3.org/2000/svg">
<path d="M147 0L160.078 88.9742L198.727 7.81846L185.071 96.7053L245.858 30.5791L206.683 111.481L284.204 66.2594L222.991 131.987L310.36 111.689L232.546 156.403L322 162.831L234.5 182.558L318.091 215.142L228.68 208.13L298.979 263.974L215.603 230.845L266.364 304.987L196.429 248.685L223.143 334.538L172.864 260.065L173.156 350L147 263.974L120.844 350L121.137 260.065L70.8576 334.538L97.5716 248.685L27.6361 304.987L78.3981 230.845L-4.97934 263.974L65.3203 208.13L-24.0908 215.142L59.5001 182.558L-28 162.831L61.4548 156.403L-16.3597 111.689L71.0105 131.987L9.79596 66.2594L87.3178 111.481L48.1427 30.5791L108.929 96.7053L95.2734 7.81846L133.923 88.9742L147 0Z" fill="#F0C3D2"/>
</svg>
